# Blender v3.3.1 OBJ File: ''
# www.blender.org
mtllib csp.mtl
o Cube
v 1.000000 0.000000 -1.000000
v -1.000000 0.000000 -1.000000
v 1.000000 0.000000 1.000000
v -0.984629 0.000000 0.990686
v -1.000000 4.179192 7.924897
v 1.000000 4.179192 7.924897
v 1.000000 0.000000 7.924897
v -0.979506 0.000000 7.942359
v 1.000000 0.000000 -1.000000
v -0.984733 -0.002159 -1.000128
v 1.000000 4.179192 7.924897
v -1.000000 4.179192 7.924897
v -11.152861 0.000000 0.987581
v -11.127323 0.000000 -1.000000
v -11.165629 0.000000 7.951090
v 4.200465 7.096982 3.316941
v 2.220959 7.096982 3.279288
v 2.205738 7.090720 3.300017
v 4.205737 7.090720 3.300017
v -11.227355 0.029885 -0.974341
v -11.211985 0.029885 1.016345
v -11.206861 0.029885 7.968018
v -8.006395 7.126868 3.304947
v -8.021618 7.120605 3.325676
v -1.000000 -0.259099 -1.000000
v 2.177109 7.068905 3.261617
v -0.920343 0.893517 -0.893152
v -0.685367 2.109734 -0.577967
v -0.306855 3.328566 -0.070249
v 0.196214 4.488894 0.604542
v 0.798613 5.532537 1.412571
v 1.470136 6.407159 2.313318
v 1.000000 0.000000 -1.000000
v 4.177252 7.069015 3.261809
v 1.079660 1.094964 -0.893147
v 1.314647 2.256425 -0.577948
v 1.693176 3.426143 -0.070208
v 2.196268 4.545463 0.604614
v 2.798694 5.558257 1.412679
v 3.470247 6.413740 2.313467
v -8.050388 7.098682 3.287084
v -11.227355 0.029885 -0.974341
v -8.757330 6.443456 2.338828
v -9.428823 5.588019 1.438121
v -10.031195 4.575266 0.630129
v -10.534241 3.455981 -0.044633
v -10.912736 2.286289 -0.552328
v -11.147702 1.124844 -0.867499
v 1.000000 0.000000 7.924897
v 4.200465 7.096982 3.316941
v 1.061496 0.965617 7.836356
v 1.243621 1.985665 7.574137
v 1.539376 3.020944 7.148316
v 1.937395 4.031669 6.575258
v 2.422382 4.978997 5.876984
v 2.975700 5.826525 5.080329
v 3.576086 6.541680 4.215909
v -0.979506 -0.497408 7.942359
v 2.214959 7.092516 3.288031
v -0.918125 0.565163 7.852928
v -0.736341 1.678267 7.588070
v -0.441141 2.799129 7.157964
v -0.043868 3.884673 6.579138
v 0.440209 4.893183 5.873837
v 0.992490 5.785904 5.069165
v 1.591750 6.528527 4.196045
v -8.012659 7.122206 3.314073
v -11.206861 0.029885 7.968018
v -8.635818 6.567814 4.222013
v -9.235027 5.853532 5.095061
v -9.787262 5.006811 5.899666
v -10.271300 4.060189 6.604909
v -10.668540 3.050044 7.183687
v -10.963717 2.015196 7.613758
v -11.145485 0.995413 7.878594
vt 0.000000 0.000000
vt 1.000000 0.000000
vt 1.000000 1.000000
vt 0.000000 1.000000
vt 0.000000 0.000000
vt 0.000000 0.000000
vt 0.000000 0.000000
vt 1.000000 1.000000
vt 0.000000 1.000000
vt 1.000000 0.000000
vt 1.000000 1.000000
vt 0.000000 1.000000
vt 0.000000 1.000000
vt 1.000000 1.000000
vt 0.000000 1.000000
vt 0.000000 0.000000
vt 0.000000 0.000000
vt 0.000000 0.000000
vt 1.000000 0.000000
vt 0.000000 1.000000
vt 0.000000 1.000000
vt 0.000000 0.000000
vt 0.000000 0.000000
vt 0.000000 0.000000
vt 0.000000 0.000000
vt 0.000000 0.000000
vt 0.000000 1.000000
vt 0.000000 1.000000
vt 1.000000 1.000000
vt 0.019914 1.000000
vt 1.039830 1.000000
vt 0.078658 1.000000
vt 1.157324 1.000000
vt 0.173286 1.000000
vt 1.346588 1.000000
vt 0.085695 1.000000
vt 1.162340 1.000000
vt 0.038899 1.000000
vt 1.073689 1.000000
vt 0.009848 1.000000
vt 1.018656 1.000000
vt 0.000000 1.000000
vt 0.000000 1.000000
vt 0.000000 1.000000
vt 0.000000 1.000000
vt 0.000000 1.000000
vt 0.000000 1.000000
vt 0.000000 1.000000
vt 1.000000 0.000000
vt 1.012671 0.000000
vt 0.006964 0.000000
vt 1.050303 0.000000
vt 0.027663 0.000000
vt 1.111649 0.000000
vt 0.061413 0.000000
vt 1.000000 0.000000
vt 0.239350 0.000000
vt 1.275919 0.000000
vt 0.137722 0.000000
vt 1.124625 0.000000
vt 0.062205 0.000000
vt 1.031459 0.000000
vt 0.015702 0.000000
vt 0.000000 0.000000
vt 0.000000 0.000000
vt 0.000000 0.000000
vt 0.000000 0.000000
vt 0.000000 0.000000
vt 0.000000 0.000000
vt 0.000000 0.000000
vt 1.000000 0.000000
vn 0.0000 1.0000 0.0000
vn 0.0000 0.0593 -0.9982
vn 0.0000 0.8695 -0.4939
vn 0.0025 0.0000 1.0000
vn 0.0088 0.0000 1.0000
vn 0.0013 0.8691 -0.4947
vn -0.0037 -0.8895 -0.4570
vn 0.0029 1.0000 -0.0000
vn -0.0029 -1.0000 0.0000
vn 0.0000 0.0000 1.0000
vn -0.0110 0.0954 -0.9954
vn -0.0227 0.2604 -0.9652
vn -0.0243 0.3976 -0.9172
vn -0.0199 0.5158 -0.8565
vn -0.0128 0.6225 -0.7825
vn -0.0058 0.7234 -0.6904
vn -0.0013 0.8219 -0.5697
vn -0.0001 0.0947 -0.9955
vn 0.0027 0.2558 -0.9667
vn 0.0035 0.3903 -0.9207
vn 0.0032 0.5084 -0.8611
vn 0.0023 0.6170 -0.7869
vn 0.0015 0.7207 -0.6933
vn 0.0012 0.8210 -0.5710
vn 0.0102 -0.8532 -0.5215
vn 0.0154 -0.7712 -0.6364
vn 0.0245 -0.6853 -0.7279
vn 0.0347 -0.5940 -0.8037
vn 0.0430 -0.4936 -0.8686
vn 0.0452 -0.3793 -0.9242
vn 0.0364 -0.2456 -0.9687
vn 0.0114 -0.0881 -0.9960
vn -0.0042 -0.8502 -0.5265
vn -0.0056 -0.7659 -0.6429
vn -0.0079 -0.6764 -0.7365
vn -0.0103 -0.5817 -0.8133
vn -0.0122 -0.4799 -0.8772
vn -0.0129 -0.3675 -0.9299
vn -0.0114 -0.2392 -0.9709
vn -0.0066 -0.0874 -0.9961
vn 0.0086 -0.8929 -0.4502
usemtl Material
s off
f 4/1/1 3/2/1 1/3/1 2/4/1
f 8/5/1 4/1/1 13/6/1 15/7/1
f 2/4/2 1/3/2 9/8/2 10/9/2
f 3/2/1 4/1/1 8/5/1 7/10/1
f 34/11/3 26/12/3 18/13/3 19/14/3
f 4/1/1 2/4/1 14/15/1 13/6/1
f 58/16/4 8/5/4 22/17/4 68/18/4
f 7/10/5 8/5/5 58/16/5 49/19/5
f 18/13/6 26/12/6 41/20/6 24/21/6
f 17/22/7 59/23/7 67/24/7 23/25/7
f 8/5/8 4/1/8 21/26/8 22/17/8
f 2/4/9 4/1/9 21/26/9 20/27/9
f 1/3/10 2/4/10 25/28/10 33/29/10
f 33/29/11 25/28/11 27/30/11 35/31/11
f 35/31/12 27/30/12 28/32/12 36/33/12
f 36/33/13 28/32/13 29/34/13 37/35/13
f 37/35/14 29/34/14 30/36/14 38/37/14
f 38/37/15 30/36/15 31/38/15 39/39/15
f 39/39/16 31/38/16 32/40/16 40/41/16
f 40/41/17 32/40/17 26/12/17 34/11/17
f 25/28/18 42/42/18 48/43/18 27/30/18
f 27/30/19 48/43/19 47/44/19 28/32/19
f 28/32/20 47/44/20 46/45/20 29/34/20
f 29/34/21 46/45/21 45/46/21 30/36/21
f 30/36/22 45/46/22 44/47/22 31/38/22
f 31/38/23 44/47/23 43/48/23 32/40/23
f 32/40/24 43/48/24 41/20/24 26/12/24
f 25/28/4 2/4/4 20/27/4 42/42/4
f 59/23/25 50/49/25 57/50/25 66/51/25
f 66/51/26 57/50/26 56/52/26 65/53/26
f 65/53/27 56/52/27 55/54/27 64/55/27
f 64/55/28 55/54/28 54/56/28 63/57/28
f 63/57/29 54/56/29 53/58/29 62/59/29
f 62/59/30 53/58/30 52/60/30 61/61/30
f 61/61/31 52/60/31 51/62/31 60/63/31
f 60/63/32 51/62/32 49/19/32 58/16/32
f 67/24/33 59/23/33 66/51/33 69/64/33
f 69/64/34 66/51/34 65/53/34 70/65/34
f 70/65/35 65/53/35 64/55/35 71/66/35
f 71/66/36 64/55/36 63/57/36 72/67/36
f 72/67/37 63/57/37 62/59/37 73/68/37
f 73/68/38 62/59/38 61/61/38 74/69/38
f 74/69/39 61/61/39 60/63/39 75/70/39
f 75/70/40 60/63/40 58/16/40 68/18/40
f 50/49/41 59/23/41 17/22/41 16/71/41
l 5 12
l 11 6
