# Blender v3.3.1 OBJ File: ''
# www.blender.org
mtllib untitl2ed.mtl
o Cube_Cube.001
v -3.506606 -0.090171 -4.205103
v -3.469197 -1.672321 -4.193170
v -3.469197 0.000000 4.706003
v -3.469197 -1.672320 4.706003
v -2.884202 -0.860639 -4.130038
v -0.729182 -1.672321 -4.193170
v -2.713703 -0.809015 4.576206
v -0.729182 -1.672320 4.706003
vt 0.375000 0.000000
vt 0.625000 0.000000
vt 0.625000 0.250000
vt 0.375000 0.250000
vt 0.625000 0.500000
vt 0.375000 0.500000
vt 0.625000 0.750000
vt 0.375000 0.750000
vt 0.625000 1.000000
vt 0.375000 1.000000
vt 0.125000 0.500000
vt 0.125000 0.750000
vt 0.875000 0.500000
vt 0.875000 0.750000
vn -0.9999 -0.0115 0.0022
vn 0.0594 0.0974 0.9935
vn 0.3752 0.9269 -0.0064
vn 0.0344 0.0528 -0.9980
vn 0.7532 0.6576 -0.0142
vn 0.0000 -1.0000 0.0000
usemtl Material.001
s off
f 1/1/1 2/2/1 4/3/1 3/4/1
f 3/4/2 4/3/2 8/5/2 7/6/2
f 7/6/3 8/5/3 6/7/3 5/8/3
f 5/8/4 6/7/4 2/9/4 1/10/4
f 3/11/5 7/6/5 5/8/5 1/12/5
f 8/5/6 4/13/6 2/14/6 6/7/6
o Cube.001_Cube.002
v -3.469197 -1.672320 4.706003
